<svg xmlns="http://www.w3.org/2000/svg" xmlns:xlink="http://www.w3.org/1999/xlink" viewBox="0 0 2395.48 1415.77"><defs><style>.cls-1,.cls-3,.cls-30{fill:none;}.cls-2{fill:#254d7c;}.cls-3,.cls-31{stroke:#fff;}.cls-3{stroke-linecap:round;stroke-linejoin:round;}.cls-3,.cls-30{stroke-width:5px;}.cls-4{fill:#f2644e;}.cls-5{fill:#c0d1ec;}.cls-51,.cls-6{opacity:0.34;}.cls-6{fill:url(#linear-gradient);}.cls-7{fill:#edeff2;}.cls-8{fill:#fff;}.cls-9{fill:#fcb316;}.cls-10{fill:#3e4558;}.cls-11{opacity:0.12;}.cls-12,.cls-45{fill:#010101;}.cls-13{fill:#5e80c0;}.cls-14{fill:#fdfeff;stroke:#00a4b1;stroke-width:0.25px;}.cls-14,.cls-30,.cls-31{stroke-miterlimit:10;}.cls-15{fill:#ffd261;}.cls-16{fill:url(#Orange_Yellow);}.cls-17{fill:url(#linear-gradient-2);}.cls-18{fill:#c1d4ee;}.cls-19{fill:#b1e2f4;}.cls-20{fill:#fcc49d;}.cls-21{fill:#f9a56b;}.cls-22{fill:#82d4f7;}.cls-23{fill:#2a92d0;}.cls-24{fill:#df6726;}.cls-25{fill:#5b85c4;}.cls-26{fill:#434b60;}.cls-27{fill:#efcf4a;}.cls-28{fill:#83d3f6;}.cls-29{fill:#7483bf;}.cls-30{stroke:#5b85c4;}.cls-31{fill:#f5f6f6;stroke-width:0.5px;}.cls-32{fill:#5b84c3;}.cls-33{fill:#f26622;}.cls-34{fill:#ffc907;}.cls-35{fill:#08a0b5;}.cls-36{fill:#96b53c;}.cls-37{fill:#b5b5b5;}.cls-38{fill:#067997;}.cls-39{fill:#dcdcdc;}.cls-40{clip-path:url(#clip-path);}.cls-41{fill:#3d65a0;}.cls-42{fill:#5b86c4;}.cls-43{fill:#f16723;}.cls-44,.cls-45{opacity:0.2;}.cls-44{fill:url(#linear-gradient-3);}.cls-46{fill:#474341;}.cls-47{fill:#304664;}.cls-48{fill:#d6d6d6;}.cls-49{fill:#23344a;}.cls-50{fill:#42618b;}.cls-51{fill:url(#linear-gradient-4);}.cls-52{fill:#efaa87;}.cls-53{fill:#efa986;}.cls-54{fill:url(#linear-gradient-5);}.cls-55{fill:#a77961;}.cls-56{fill:#b72b29;}</style><linearGradient id="linear-gradient" x1="1135.5" y1="1229.06" x2="1379.76" y2="1229.06" gradientUnits="userSpaceOnUse"><stop offset="0" stop-color="#010101"/><stop offset="1" stop-color="#010101" stop-opacity="0"/></linearGradient><linearGradient id="Orange_Yellow" x1="480.49" y1="1223.08" x2="580.28" y2="1223.08" gradientUnits="userSpaceOnUse"><stop offset="0" stop-color="#fff33b"/><stop offset="0.04" stop-color="#fee72e"/><stop offset="0.12" stop-color="#fed51b"/><stop offset="0.2" stop-color="#fdca10"/><stop offset="0.28" stop-color="#fdc70c"/><stop offset="0.67" stop-color="#f3903f"/><stop offset="0.89" stop-color="#ed683c"/><stop offset="1" stop-color="#e93e3a"/></linearGradient><linearGradient id="linear-gradient-2" x1="447.11" y1="756.51" x2="447.11" y2="336.66" gradientUnits="userSpaceOnUse"><stop offset="0" stop-color="#f15a29"/><stop offset="1" stop-color="#ffd261"/></linearGradient><clipPath id="clip-path"><rect class="cls-1" x="772.31" y="941.76" width="81.2" height="81.2"/></clipPath><linearGradient id="linear-gradient-3" x1="1774.1" y1="847.19" x2="2014.05" y2="847.19" xlink:href="#linear-gradient"/><linearGradient id="linear-gradient-4" x1="2170.23" y1="653.81" x2="2183.9" y2="849.78" xlink:href="#linear-gradient"/><linearGradient id="linear-gradient-5" x1="2274.03" y1="671.03" x2="2082.04" y2="338.49" gradientUnits="userSpaceOnUse"><stop offset="0" stop-color="#005a4d"/><stop offset="0.22" stop-color="#187b6b"/><stop offset="0.57" stop-color="#3bab98"/><stop offset="0.75" stop-color="#48bea9"/><stop offset="0.77" stop-color="#54c0a8"/><stop offset="0.84" stop-color="#7ec6a3"/><stop offset="0.91" stop-color="#9dcba0"/><stop offset="0.96" stop-color="#b0ce9e"/><stop offset="1" stop-color="#b7cf9d"/></linearGradient></defs><title>Asset 9</title><g id="Layer_2" data-name="Layer 2"><g id="monitor"><rect class="cls-2" x="556.98" y="404.57" width="1374.74" height="840" rx="5.31"/><path class="cls-3" d="M1511.27,394.76V318c0-18.95-13.78-34.31-30.77-34.31H1207.7"/><path class="cls-4" d="M1370.73,262.75v38.61c0,4.34-4.21,7.05-7.58,4.88l-29.9-19.31a6,6,0,0,1,0-9.75l29.9-19.3C1366.52,255.7,1370.73,258.41,1370.73,262.75Z"/><rect class="cls-5" x="1135.5" y="1166.82" width="244.26" height="248.95"/><rect class="cls-6" x="1135.5" y="1166.82" width="244.26" height="124.48"/><path class="cls-7" d="M1555.3,1415.77c-50.71-33.73-164.87-57.27-297.67-57.27s-247,23.54-297.66,57.27Z"/><rect class="cls-8" x="619.81" y="471.73" width="1253.11" height="726.68" rx="2.51"/><rect class="cls-8" y="734.21" width="292.55" height="72.92" rx="3.63"/><rect class="cls-9" x="28.26" y="766.33" width="167.11" height="9.98" rx="0.54"/><path class="cls-9" d="M232.15,771.39a5.06,5.06,0,1,1-5.06-5.06A5.07,5.07,0,0,1,232.15,771.39Z"/><path class="cls-9" d="M264.3,771.39a5.06,5.06,0,1,1-5.06-5.06A5.07,5.07,0,0,1,264.3,771.39Z"/><rect class="cls-8" y="885.86" width="292.55" height="72.92" rx="3.63"/><rect class="cls-8" x="28.26" y="917.98" width="167.11" height="9.98" rx="0.54"/><path class="cls-8" d="M232.15,923a5.06,5.06,0,1,1-5.06-5.06A5.07,5.07,0,0,1,232.15,923Z"/><path class="cls-8" d="M264.3,923a5.06,5.06,0,1,1-5.06-5.06A5.07,5.07,0,0,1,264.3,923Z"/><rect class="cls-8" y="1037.51" width="292.55" height="72.92" rx="3.63"/><path class="cls-10" d="M208.67,1074.69a5.06,5.06,0,1,1-5-5.06A5.06,5.06,0,0,1,208.67,1074.69Z"/><path class="cls-10" d="M153.05,1074.69a5.06,5.06,0,1,1-5.06-5.06A5.06,5.06,0,0,1,153.05,1074.69Z"/><path class="cls-10" d="M97.43,1074.69a5.06,5.06,0,1,1-5.06-5.06A5.07,5.07,0,0,1,97.43,1074.69Z"/><path class="cls-10" d="M41.81,1074.69a5.06,5.06,0,1,1-5.06-5.06A5.07,5.07,0,0,1,41.81,1074.69Z"/><path class="cls-10" d="M264.3,1074.69a5.06,5.06,0,1,1-5.06-5.06A5.07,5.07,0,0,1,264.3,1074.69Z"/><g class="cls-11"><path class="cls-12" d="M492.67,1164.47c17.22,1.24,35.66,3.72,52.09,8.43,10.07,2.88,20-5,20-15.43v-33.65H465V762.51c0-20.67,12.64-38.82,31.51-47.24,77.75-34.66,123.53-128.07,80.8-223.86a146.39,146.39,0,0,0-76.2-74.52c-119.78-51.18-235,35.32-235,148.74a163.8,163.8,0,0,0,97.82,149.93c19,8.37,30.87,27.62,30.87,48.38v575a20.14,20.14,0,0,0,20.13,20.14h30A20.14,20.14,0,0,0,465,1338.94H564.8v-33.65c0-10.47-10-18.31-20-15.42-16.43,4.7-34.87,7.19-52.09,8.42v-44.86h35.39a13.11,13.11,0,0,0,13.1-13.1v-17.9a13.11,13.11,0,0,0-13.1-13.1H492.67ZM388.27,497.8a41.63,41.63,0,1,1,41.63,41.63A41.63,41.63,0,0,1,388.27,497.8Z"/></g><path class="cls-3" d="M469.23,404.57V265.11c0-18.72,18.16-33.89,40.57-33.89h391"/><circle class="cls-13" cx="960.03" cy="134.13" r="129.55" transform="translate(186.34 718.13) rotate(-45)"/><path class="cls-14" d="M961.59.13c-72.65,0-131.76,59.1-131.76,131.75s59.11,131.76,131.76,131.76,131.76-59.11,131.76-131.76S1034.24.13,961.59.13ZM967,77.58a391.77,391.77,0,0,0,52.2-4.1,201.79,201.79,0,0,1,8.14,53H967Zm0-10.83V11.4c20.13,3,37.72,22.75,48.65,51.62A384.47,384.47,0,0,1,967,66.75ZM956.17,11.4V66.75A384.47,384.47,0,0,1,907.52,63C918.45,34.15,936,14.43,956.17,11.4Zm0,66.18v48.89H895.83a201.65,201.65,0,0,1,8.14-53A393.46,393.46,0,0,0,956.17,77.58ZM885,126.47H840.8a120.19,120.19,0,0,1,20.45-62q15.57,4.34,31.87,7.27A213.59,213.59,0,0,0,885,126.47Zm0,10.83A213.65,213.65,0,0,0,893.12,192q-16.3,2.91-31.87,7.27a120.19,120.19,0,0,1-20.45-62Zm10.83,0h60.34v48.88a393.44,393.44,0,0,0-52.2,4.1A201.71,201.71,0,0,1,895.83,137.3ZM956.17,197v55.35c-20.13-3-37.72-22.76-48.65-51.63A386.33,386.33,0,0,1,956.17,197ZM967,252.37V197a386.33,386.33,0,0,1,48.65,3.72C1004.73,229.61,987.14,249.34,967,252.37Zm0-66.19V137.3h60.34a201.71,201.71,0,0,1-8.14,53A393.44,393.44,0,0,0,967,186.18Zm71.17-48.88h44.2a120.19,120.19,0,0,1-20.45,62q-15.57-4.34-31.87-7.27A213.65,213.65,0,0,0,1038.18,137.3Zm0-10.83a213.59,213.59,0,0,0-8.12-54.73q16.31-2.92,31.87-7.27a120.19,120.19,0,0,1,20.45,62ZM1055,55.13c-9.17,2.41-18.61,4.51-28.3,6.19C1020,43,1010.81,27.84,999.84,17.19A121.36,121.36,0,0,1,1055,55.13ZM923.34,17.19c-11,10.65-20.17,25.81-26.82,44.13-9.69-1.68-19.13-3.78-28.3-6.19A121.41,121.41,0,0,1,923.34,17.19ZM868.22,208.64c9.17-2.42,18.61-4.51,28.3-6.19,6.65,18.32,15.85,33.47,26.82,44.12A121.31,121.31,0,0,1,868.22,208.64Zm131.62,37.93c11-10.65,20.17-25.8,26.82-44.12,9.69,1.68,19.13,3.77,28.3,6.19A121.31,121.31,0,0,1,999.84,246.57Z"/><path class="cls-3" d="M269.91,587.23h-70a53.6,53.6,0,0,0-53.6,53.6v75.46"/><path class="cls-3" d="M146.28,1128.35v75.46a53.59,53.59,0,0,0,53.6,53.6H397.57"/><line class="cls-3" x1="146.28" y1="820.36" x2="146.28" y2="871.51"/><line class="cls-3" x1="146.28" y1="973.14" x2="146.28" y2="1024.28"/><path class="cls-8" d="M700.78,232.22a18.92,18.92,0,1,1-18.92-18.92A18.93,18.93,0,0,1,700.78,232.22Z"/><path class="cls-8" d="M700.78,232.22a18.92,18.92,0,1,1-18.92-18.92A18.93,18.93,0,0,1,700.78,232.22Z"/><path class="cls-15" d="M508.15,1164.47c17.22,1.24,35.66,3.72,52.09,8.43,10.07,2.88,20-5,20-15.43v-33.65H480.49V762.51c0-20.67,12.65-38.82,31.52-47.24,77.75-34.66,123.53-128.07,80.8-223.86a146.42,146.42,0,0,0-76.2-74.52c-119.78-51.18-235,35.32-235,148.74a163.78,163.78,0,0,0,97.82,149.93c19,8.37,30.86,27.62,30.86,48.38v575a20.14,20.14,0,0,0,20.14,20.14h30a20.14,20.14,0,0,0,20.13-20.14h99.79v-33.65c0-10.47-10-18.31-20-15.42-16.43,4.7-34.87,7.19-52.09,8.42v-44.86h35.38a13.1,13.1,0,0,0,13.1-13.1v-17.9a13.1,13.1,0,0,0-13.1-13.1H508.15ZM403.74,497.8a41.63,41.63,0,1,1,41.63,41.63A41.63,41.63,0,0,1,403.74,497.8Z"/><path class="cls-16" d="M522.46,1165.78c14.45,1.63,29.12,4.27,42.24,8.47a12,12,0,0,0,15.58-11.43v-39H497.11a16.62,16.62,0,0,1-16.62-16.61v216.68c0,8.83,7.51,15.2,16.34,15.06h83.45v-39a12,12,0,0,0-15.58-11.43c-13.12,4.19-27.79,6.83-42.24,8.46a13,13,0,0,1-14.31-12.92v-19.5a11.13,11.13,0,0,1,11.13-11.13h25.19a12.16,12.16,0,0,0,12.16-12.17V1221.5a12.16,12.16,0,0,0-12.16-12.17H519.28a11.13,11.13,0,0,1-11.13-11.13v-19.5A13,13,0,0,1,522.46,1165.78Z"/><path class="cls-17" d="M447.11,703.36A137.74,137.74,0,1,0,309.38,565.63,137.73,137.73,0,0,0,447.11,703.36Zm-1.74-247.19a41.63,41.63,0,1,1-41.62,41.63A41.63,41.63,0,0,1,445.37,456.17Z"/><path class="cls-4" d="M746.05,212.91v34.63a5,5,0,0,0,7.58,4.37l29.9-17.32a5,5,0,0,0,0-8.73l-29.9-17.32A5,5,0,0,0,746.05,212.91Z"/><path class="cls-8" d="M1234.05,221.36h-4a86.46,86.46,0,0,0-160.58-44.53,53.37,53.37,0,0,0-82.8,44.53h-9.29a40.87,40.87,0,1,0,0,81.73h256.68a40.87,40.87,0,1,0,0-81.73Z"/><path class="cls-18" d="M622.09,468.35h1249a2.28,2.28,0,0,1,2.28,2.28v82.15a0,0,0,0,1,0,0H619.81a0,0,0,0,1,0,0V470.63A2.28,2.28,0,0,1,622.09,468.35Z"/><circle class="cls-13" cx="657.54" cy="511.02" r="13.87" transform="translate(9.84 1034.47) rotate(-76.8)"/><circle class="cls-13" cx="715.01" cy="511.02" r="13.87" transform="translate(66.74 1104.42) rotate(-78.02)"/><circle class="cls-13" cx="772.47" cy="511.02" r="13.87" transform="translate(97.64 1145.42) rotate(-76.72)"/></g><g id="Layer_24" data-name="Layer 24"><g id="Слой_2" data-name="Слой 2"><path class="cls-19" d="M1717.55,1029c-42.07,1.12-59,21.66-75.37,41.55-16.87,20.5-34.31,41.69-80.19,41.69v.14h-21.58v28.8h21.91v-.06c47.09-.13,64.94-26,82.2-51s33.38-48.35,76.68-48.35v-.58h-3.65V1029Z"/><path class="cls-20" d="M1712.23,990.19V990c-43.42,0-59.63-17.76-76.8-36.56s-35.11-38.44-82.08-38.53v-.27h-21.9v24H1553v.45c45.75,0,63.2,29,80.07,57,16.37,27.19,33.29,55.27,75.5,56.8v.32h21.9V990.19Z"/><path class="cls-21" d="M1635.43,953.44c-17.26-18.9-35.11-38.44-82.08-38.53v-.27h-21.9v10.9c5.27-.62,10.64-.32,15.93-.34,2.48,0,4.19,0,5.64.91v-.21c47.33,0,65.22,24.91,82.52,49,16.67,23.21,32.45,45.17,73,46.4V990.19h3.64V990C1668.81,990,1652.6,972.24,1635.43,953.44Z"/><path class="cls-20" d="M1712.23,1101.93v-.12c-43.42,0-59.63-11.35-76.8-23.37s-35.11-24.58-82.08-24.64v-.17h-21.9V1069H1553v.29c45.75,0,63.2,18.53,80.07,36.46,16.37,17.38,33.29,35.34,75.5,36.31v.21h21.9v-40.33Z"/><path class="cls-21" d="M1635.43,1075.44c-17.26-12.09-35.11-24.58-82.08-24.64v-.17h-21.9v7c5.27-.4,10.64-.21,15.93-.22,2.48,0,4.19,0,5.64.58v-.13c47.33,0,65.22,15.93,82.52,31.33,16.67,14.84,32.45,28.87,73,29.67v-19.9h3.64v-.12C1668.81,1098.81,1652.6,1087.46,1635.43,1075.44Z"/><path class="cls-22" d="M1730.49,915.65h-21.9v0c-41.81.59-58.69,11.24-75,21.55-16.91,10.68-34.4,21.72-80.55,21.72v0h-21.57v47.57H1553v.17c46.43,0,63.66-17.65,80.33-34.72,15.92-16.3,32.37-33.11,75.24-34.51v8.26c-42.08,1.12-59,21.66-75.37,41.55-16.87,20.5-34.32,41.69-80.2,41.69v.14h-21.57v28.79h21.9v-.06c47.09-.12,65-26,82.21-51s33.37-48.36,76.67-48.36v-.57h18.26V915.65Z"/><rect class="cls-23" x="1531.45" y="1029.11" width="21.9" height="28.79"/><path class="cls-19" d="M1553.35,977.67c45.83-.06,63.26-13.43,80.11-26.36,16.35-12.54,33.24-25.49,75.13-26.2v-9.44c-41.81.59-58.69,11.24-75,21.55-16.91,10.68-34.4,21.72-80.55,21.72v0h.33Z"/><path class="cls-19" d="M1712.23,915.64h0Z"/><path class="cls-19" d="M1708.59,945.73c-42.08,1.12-59,21.66-75.37,41.55-16.87,20.5-34.32,41.69-80.2,41.69v.14h-21.57v28.79h21.9v-.06c47.09-.12,65-26,82.21-51s33.37-48.36,76.67-48.36v-.57h-3.64v-12.2Z"/><rect class="cls-24" x="1531.45" y="914.64" width="21.9" height="24.03"/></g><g id="Слой_1" data-name="Слой 1"><rect class="cls-24" x="1531.45" y="1044.51" width="21.9" height="24.03"/><rect class="cls-24" x="1531.45" y="914.64" width="21.9" height="24.03"/><rect class="cls-24" x="1708.59" y="990.19" width="21.9" height="63.07"/><rect class="cls-23" x="1531.45" y="958.96" width="21.9" height="47.57"/><rect class="cls-23" x="1531.45" y="1029.11" width="21.9" height="28.79"/><rect class="cls-23" x="1708.59" y="915.65" width="21.9" height="42.28"/><rect class="cls-24" x="1708.59" y="1098.94" width="21.9" height="43.08"/><rect class="cls-23" x="1535.45" y="1112.11" width="15.59" height="28.79"/></g></g><g id="Layer_14_copy" data-name="Layer 14 copy"><path class="cls-8" d="M964,644h0C961.13,623.93,919.87,608,869.38,608S777.63,623.93,774.74,644h-.18V810.17h.18c2.89,20,44.15,35.94,94.64,35.94s91.75-15.9,94.64-35.94h.18V644Z"/><path class="cls-25" d="M869.38,792.2c-52.37,0-94.82-17.09-94.82-38.18v56.15h.18c2.89,20,44.15,35.94,94.64,35.94s91.75-15.9,94.64-35.94h.18V754C964.2,775.11,921.75,792.2,869.38,792.2Z"/><path class="cls-26" d="M774.56,751.78V754a15.26,15.26,0,0,1,.18-2.24Z"/><path class="cls-26" d="M964,751.78a15.26,15.26,0,0,1,.18,2.24v-2.24Z"/><path class="cls-27" d="M869.38,738.3c-52.37,0-94.82-17.09-94.82-38.18v56.15h.18c2.89,20,44.15,35.93,94.64,35.93s91.75-15.89,94.64-35.93h.18V700.12C964.2,721.21,921.75,738.3,869.38,738.3Z"/><path class="cls-27" d="M774.56,697.88v2.24a15.26,15.26,0,0,1,.18-2.24Z"/><path class="cls-27" d="M964,697.88a15.26,15.26,0,0,1,.18,2.24v-2.24Z"/><ellipse class="cls-28" cx="869.38" cy="645.98" rx="94.82" ry="38.18"/><path class="cls-25" d="M869.38,684.4c-52.37,0-94.82-17.09-94.82-38.18v56.15h.18c2.89,20,44.15,35.93,94.64,35.93s91.75-15.89,94.64-35.93h.18V646.22C964.2,667.31,921.75,684.4,869.38,684.4Z"/><path class="cls-29" d="M774.56,644v2.24a15.26,15.26,0,0,1,.18-2.24Z"/><path class="cls-29" d="M964,644a15.26,15.26,0,0,1,.18,2.24V644Z"/></g><g id="Layer_9" data-name="Layer 9"><path class="cls-30" d="M772.44,1135.65c-4.11,0-7.47-2.84-7.47-6.3V926.87c0-3.47,3.36-6.31,7.47-6.31h179c4.11,0,7.46,2.84,7.46,6.31v202.48c0,3.46-3.35,6.3-7.46,6.3Z"/><rect class="cls-31" x="768.58" y="925.13" width="186.47" height="206.81"/><rect class="cls-8" x="860.47" y="925.13" width="94.57" height="206.81"/><rect class="cls-32" x="833.33" y="910.22" width="56.97" height="24.7"/><path class="cls-32" d="M861.81,919.35c-6.07,0-11-4.1-11-9.13s4.93-9.13,11-9.13,11,4.1,11,9.13S867.88,919.35,861.81,919.35Zm0-15c-3.92,0-7.12,2.64-7.12,5.9s3.2,5.91,7.12,5.91,7.12-2.65,7.12-5.91S865.74,904.32,861.81,904.32Z"/><rect class="cls-33" x="860.47" y="953.73" width="12.81" height="61.49"/><rect class="cls-34" x="877.9" y="960.26" width="12.82" height="54.96"/><rect class="cls-35" x="895.32" y="977.41" width="12.82" height="37.81"/><rect class="cls-36" x="912.74" y="966.53" width="12.82" height="48.69"/><rect class="cls-37" x="930.16" y="988.43" width="12.83" height="26.79"/><path class="cls-38" d="M817.32,1088l28.33-19.61c11.36,14.91,7.89,35.76-7.75,46.59s-37.54,7.52-48.9-7.38-7.9-35.77,7.74-46.59a34.69,34.69,0,0,1,20.58-6.36Z"/><path class="cls-39" d="M817.32,1088v-33.35c11.6,0,21.5,4.8,28.33,13.74Z"/><rect class="cls-32" x="779.21" y="1033.39" width="163.78" height="6.44"/><rect class="cls-32" x="877.91" y="1078.67" width="65.08" height="6.45"/><rect class="cls-32" x="877.92" y="1089.68" width="65.07" height="6.44"/><rect class="cls-32" x="877.92" y="1100.69" width="65.07" height="6.44"/><rect class="cls-32" x="877.92" y="1111.7" width="65.07" height="6.45"/><rect class="cls-32" x="877.91" y="1051.1" width="65.08" height="14.28"/><g class="cls-40"><path class="cls-41" d="M800.75,984.73a30.76,30.76,0,0,0-18.08,24.7,6.59,6.59,0,0,0,6.55,6.76h47.37a6.6,6.6,0,0,0,6.56-6.76,30.76,30.76,0,0,0-18.08-24.7,13.39,13.39,0,0,1-24.32,0Z"/></g><g class="cls-40"><path class="cls-25" d="M829.82,965.44a16.91,16.91,0,1,1-8.43-14.71A16.92,16.92,0,0,1,829.82,965.44Z"/></g><g class="cls-40"><path class="cls-25" d="M812.91,979A30.41,30.41,0,0,0,782.67,1006a6.59,6.59,0,0,0,6.55,6.77h47.37a6.59,6.59,0,0,0,6.56-6.77A30.41,30.41,0,0,0,812.91,979Z"/></g></g><g id="Layer_16" data-name="Layer 16"><path class="cls-32" d="M1309.15,905.2h48.46v4.9c0,6.62-.08,13.25,0,19.86.07,3.84-.19,7-3.38,10.19-4.64,4.59-3.58,12.3,1.35,16.74a12.4,12.4,0,0,0,17.25-.63c4.58-4.73,4.9-12.31.14-16.85-2.32-2.2-2.88-4.38-2.85-7.3.11-11.71,0-23.43,0-35.14v-4.43H1266.41V862.26h3.83q39.59,0,79.17,0a6.74,6.74,0,0,1,5.62,2.27,12.11,12.11,0,0,0,17.72.22,12.37,12.37,0,0,0,0-17.52c-5-5-12.64-4.82-17.83.2a7.33,7.33,0,0,1-4.38,2.21c-27.41.13-54.82.09-82.23.08-.5,0-1-.08-1.81-.15v-29.9h66.83c.07-1.66.18-3,.18-4.33,0-10.31-.08-20.63.11-30.93a7.83,7.83,0,0,1,2.1-4.8c5-5.21,5.35-12.8.42-17.82a12.4,12.4,0,0,0-17.8,0c-4.94,5-4.66,12.58.39,17.82a7.91,7.91,0,0,1,2.11,4.78c.23,7.36.1,14.72.1,22.33H1266.3c0-1-.14-1.85-.14-2.71,0-23.43-.09-46.85,0-70.27.07-14.6,10.56-27.13,24.46-29.63,18.51-3.32,34.67,9.1,36.33,28,.08.88.12,1.75.21,3,12.53-2.76,23.72-.34,32.78,8.75s11.61,20,8.65,32.66c15.78.66,28,7.24,34.58,21.77s3.6,27.79-6.49,40c22,6.63,34.88,20.81,34.06,43.93-.75,21.29-13.45,34.33-34.1,40.23,10.1,12.35,13.12,25.81,6.46,40.3s-18.67,20.91-34.19,21.59c6.08,25.33-15.8,47.71-41.52,41.73-.51,3-.79,6-1.58,8.94-3.86,14.25-18,24.08-32,22.33-15.7-2-27.49-13.95-27.58-29.24-.25-40.48-.08-81-.07-121.44a8.53,8.53,0,0,1,.24-1.36h29.82c.06,1.19.16,2.3.16,3.41,0,22.53.06,45.07-.09,67.6a8.3,8.3,0,0,1-2.25,5.1c-5,5.22-5.13,12.86-.11,17.83a12.38,12.38,0,0,0,17.53,0c5-5,4.83-12.64-.17-17.81a7.32,7.32,0,0,1-2.22-4.36c-.14-23.3-.1-46.59-.09-69.88C1309,906.65,1309.08,906.15,1309.15,905.2Zm48.56-85.9V807.23h-12.09V819.3Zm36.89,55v12h12v-12Z"/><path class="cls-32" d="M1241.24,819.82v29.72h-97.83v4.53c0,14.13,0,28.27,0,42.4a6.67,6.67,0,0,1-2.25,5.62,12.06,12.06,0,0,0-.26,17.69,12.41,12.41,0,0,0,17.54,0c5-5,4.83-12.59-.13-17.83a8.47,8.47,0,0,1-2.25-5.11c-.19-11.32-.1-22.64-.1-34.28h85.08V892.4h-60.93v4.38c0,16.29.06,32.59-.1,48.88a8.34,8.34,0,0,1-2.21,5.13,12.63,12.63,0,0,0,0,18.15,8.39,8.39,0,0,1,2.2,5.13c.21,9.39.1,18.79.1,28.54h61.19c0,2,0,3.77,0,5.48-.13,7.76.49,15.62-.58,23.24a29.9,29.9,0,0,1-31.16,26.11c-15.7-.76-27.85-12.89-29.1-29-.06-.75-.11-1.49-.2-2.64-12.55,2.8-23.72.35-32.78-8.75s-11.56-20-8.67-32.64c-15.81-.67-28-7.29-34.57-21.82s-3.52-27.78,6.52-40c-21.4-6.34-34.26-20-34.1-42.45.16-22,12.94-35.54,34.12-41.7-10.13-12.38-13.1-25.84-6.4-40.35,6.62-14.35,18.72-20.85,34.22-21.52-6.19-27.22,17.65-47.62,41.46-41.47.32-2.11.58-4.19,1-6.27a30.38,30.38,0,0,1,31.15-25.36c15.56.76,28.64,13,29,28.65.51,24.56.12,49.14.1,73.71a3.74,3.74,0,0,1-.32.93h-35.67a22.69,22.69,0,0,1-.3-2.75c0-5.47,0-10.95,0-16.42-.06-3.59.2-6.54,3.25-9.48,4.8-4.62,3.73-12.55-1.38-17a12.4,12.4,0,0,0-17,.64c-4.76,4.79-5,12.51-.13,17.13a8.23,8.23,0,0,1,2.72,7c-.16,6.61-.07,13.23-.1,19.85a7.37,7.37,0,0,1-.32,1.29h-7.33c-9.05,0-18.11.08-27.16-.09A7.27,7.27,0,0,1,1153,805c-5.41-5.29-13-5.68-18.1-.66a12.35,12.35,0,0,0,.05,17.78c5.15,5,12.71,4.62,18.07-.77a5.56,5.56,0,0,1,3.43-1.78q41.68-.13,83.38,0A8.64,8.64,0,0,1,1241.24,819.82Zm-146.52,54.52v12h12v-12Zm36.71,73.32v12.05h12.07V947.66Z"/><path class="cls-32" d="M1241.15,905.25v84.69h-48.4c0-6.09-.07-12.27.08-18.44,0-.79,1.05-1.62,1.75-2.3,5.85-5.68,5.78-13-.07-18.8a5.6,5.6,0,0,1-1.72-3.45c-.11-13.48-.06-27,0-40.44a6.13,6.13,0,0,1,.3-1.26Z"/></g><g id="Layer_29" data-name="Layer 29"><path class="cls-42" d="M1723.37,660.15c-5,0-10,0-15,0a2.58,2.58,0,0,1-2.68-1.62c-4-7.55-8.15-15-12.16-22.58-1.29-2.43-2.91-3.62-5.65-3.57-8,.14-15.95,0-23.92.1a3,3,0,0,1-3.09-2c-1.9-3.63-3.91-7.2-5.9-10.78-1.37-2.46-3.1-3.11-5-2s-2.32,3.39-1.06,5.75c1.77,3.3,3.51,6.62,5.39,9.85a3.88,3.88,0,0,1,.08,4.46c-4.21,7.51-8.23,15.15-12.39,22.69a6.65,6.65,0,0,0,0,7c4.2,7.6,8.27,15.28,12.45,22.89a2.76,2.76,0,0,1,0,3.08q-10,18.33-19.82,36.75a2.59,2.59,0,0,1-2.71,1.62l8.6,5.34a2.58,2.58,0,0,1,0-2.88q10.11-18.5,20.11-37.07a2.76,2.76,0,0,1,2.79-1.78c6.69.1,13.39.22,20.07,0,2.92-.11,4.53.78,5.91,3.63,2.83,5.85,6.1,11.47,9.27,17.14,1.31,2.35,3.17,2.77,5.1,1.4,1.69-1.2,2-3.22.81-5.49q-5-9.33-10.13-18.61a2.81,2.81,0,0,1-.11-3.12q5.85-10.58,11.51-21.24a2.14,2.14,0,0,1,2.21-1.33c5.14,0,10.27,0,15.41,0,3.44,0,5.21-1.34,5.18-3.92S1726.88,660.15,1723.37,660.15ZM1697,665.63c-3.65,6.6-7.2,13.26-10.84,20-7.39,0-14.88,0-22.37,0a2.31,2.31,0,0,1-1.64-1.11c-3.55-6.42-7.06-12.86-10.48-19.36a2.92,2.92,0,0,1,.06-2.3q5.1-9.65,10.38-19.18a2.57,2.57,0,0,1,1.81-1.18c7.42-.08,14.84-.05,22.21-.05,3.63,6.7,7.19,13.34,10.82,19.94A2.94,2.94,0,0,1,1697,665.63Z"/><path class="cls-42" d="M1729.6,731c1.05-1.69,1.3-3.3.06-5-1.67-2.24-4.34-1.9-6,.8q-8.09,13-16.09,26.07a2.73,2.73,0,0,1-2.92,1.56c-3.84-.35-7.71-.35-11.53-.82-2.6-.32-4.27.76-5.6,2.89-2.09,3.34-4.19,6.67-6.21,10.06a2.59,2.59,0,0,1-2.78,1.49q-11.83-.84-23.68-1.47l-.73,7.61q12.14.81,24.28,1.49a2.17,2.17,0,0,1,2.13,1.51c1.76,3.87,3.62,7.69,5.42,11.54a5.27,5.27,0,0,0,4.8,3.32c5.33.29,10.66.64,16,.89a2.13,2.13,0,0,0,1.64-.78q5-7.61,9.75-15.32a5,5,0,0,0,.24-5.08q-1.44-3-2.81-6c-1-2.3-3-4.7-2.83-6.93s2.36-4.36,3.68-6.52Q1723,741.66,1729.6,731Zm-23.41,47.33c-2.18,3.61-4.36,4.87-8.39,4.44-3.27-.35-4.92-1.48-6.53-4.55-2.15-4.08-2.1-7.09.6-10.88,1.87-2.64,3.45-4.26,6.58-3.34a4.81,4.81,0,0,0,1,.07c4-1,5.44,1.56,7.14,4.85C1708.44,772.45,1708.26,774.89,1706.19,778.31Z"/><path class="cls-42" d="M1585.38,765q-7.91.32-15.81.32a3.06,3.06,0,0,1-2.17-1.32,89.42,89.42,0,0,1-4.38-8,4.26,4.26,0,0,0-4.24-2.63c-2.77,0-5.55-.08-8.31,0a2.62,2.62,0,0,1-2.69-1.71c-2.66-5-5.41-10-8.13-14.91a2.86,2.86,0,0,0-3.81-1.47,3.12,3.12,0,0,0-2.11,3.87,11.53,11.53,0,0,0,1.07,3q3.6,6.87,7.32,13.65a2.72,2.72,0,0,1,0,2.95c-1.43,2.51-2.73,5.11-4.15,7.63a4.85,4.85,0,0,0,0,5.06c1.36,2.47,2.62,5,4.07,7.43a3.55,3.55,0,0,1,.07,4.06c-2.68,4.72-5.22,9.54-7.79,14.33-1.51,2.8-1.11,4.9,1.11,6.22,1.59,1,3.52,0,4.85-2.38,2.8-5.07,5.62-10.13,8.37-15.24a2.26,2.26,0,0,1,2.37-1.48c2.69.11,5.4,0,8.1,0a3.76,3.76,0,0,0,3.76-2.33c1.34-2.65,2.8-5.24,4.11-7.91a2.26,2.26,0,0,1,2.36-1.48c5.21.07,10.41.08,15.61,0,.47,0,1.16-2.06,1.54-2.19C1586.07,770.28,1585.79,765,1585.38,765Zm-27.63,11.15c-.75.94-2.86.62-4.38.88-1.52-.24-3.64.11-4.41-.82-1.69-2-3.65-4.71-3.72-7.17s2.06-4.82,3.43-7.09a3,3,0,0,1,2.31-.84c2.3.06,5.2-.51,6.75.74a10.56,10.56,0,0,1,3.64,7.11C1561.37,771.44,1559.41,774.13,1557.75,776.19Z"/><path class="cls-42" d="M1586.52,770.54h-.06A0,0,0,0,0,1586.52,770.54Z"/><path class="cls-43" d="M1641.35,803.74a2.56,2.56,0,0,1-.11-2.88c4.85-8.86,9.65-18.45,14.4-27.37a14.31,14.31,0,0,0,1.52-3.89,8.62,8.62,0,0,0-1.1-4c-4.66-8.81-14.37-25.09-19.14-33.83-4.66-.09-13.55-.09-18.21-.09s-9.6-.05-14.4,0c-.81,0-3,.72-3.48.28.21.67-4.85,3.67-5.3,4.5-5,9.05-9.8,18.16-14.76,27.2-.13.24-.59,6.61-.84,6.82.59.23.68,3.07,1.09,3.83,5.08,9.56,10.25,19,15.33,28.6a5.14,5.14,0,0,0,5.05,3.12c10.41-.08,20.81,0,31.22-.06a2.65,2.65,0,0,1,2.72,1.65c2.22,4.26,4.53,8.47,6.83,12.69s4.55,8.46,6.92,12.63c1.48,2.62,4.57,2.77,6,.35a4.44,4.44,0,0,0-.18-4.65C1650.35,820.4,1645.89,812,1641.35,803.74Zm-7.31-9.33a2.76,2.76,0,0,1-2.79,1.77q-13.07-.13-26.14,0a2.46,2.46,0,0,1-2.48-1.57q-6.32-11.76-12.78-23.44a3.84,3.84,0,0,1,0-4.28c4.63-8.32,9.12-16.74,13.69-25.19H1633c4,7.31,7.84,14.61,11.88,21.8,3,5.29,3.07,5.22.15,10.59Q1639.51,784.24,1634,794.41Z"/><path class="cls-43" d="M1602.46,735.05c-.11-.33-5.31,1.7-5.5,1.35-3.36-6.12-6.64-12.3-10.07-18.38a3.19,3.19,0,0,0-2.34-1.38c-5.68-.12-11.36-.12-17,0a4.22,4.22,0,0,1-4.13-2.46c-2.91-5.33-5.9-10.62-8.77-16a3,3,0,0,0-3.11-2c-6.22.13-12.44.06-18.66,0-2.47,0-3.76-1.25-3.79-3.64s1.26-3.7,3.71-3.7c6.29,0,12.57-.07,18.86,0a2.89,2.89,0,0,0,3-1.88c2.64-5.09,5.42-10.08,8.09-15.15,1.24-2.35,2.87-3.47,5.54-3.38,5.81.19,11.63,0,17.44.09a2.39,2.39,0,0,0,2.52-1.54q3.46-6.81,7.13-13.5a2.69,2.69,0,0,0,0-3.11c-1.3-2.09-2-5.11-3.79-6.19s-4.6-.32-7-.34c-2.16,0-4.33,0-6.49,0a3.77,3.77,0,0,1-4-3.58,3.85,3.85,0,0,1,4-3.82c3.86,0,7.71-.07,11.56,0a2.85,2.85,0,0,0,3-1.84c1.24-2.54,2.71-5,4-7.45a4.78,4.78,0,0,1,4.64-2.79q5.47.09,10.95,0a4.76,4.76,0,0,1,4.49,2.74c1.88,3.4,3.69,6.84,5.56,10.25a5.27,5.27,0,0,1,0,5.47c-1.79,3.21-3.48,6.48-5.21,9.72-1.23,2.31-2.94,3.58-5.58,3.43a73.14,73.14,0,0,0-8.11,0,2.85,2.85,0,0,0-2,1.25q-4,7-7.69,14.17a3.2,3.2,0,0,0,.06,2.45c2.7,5.21,5.46,10.39,8.32,15.5a5.77,5.77,0,0,1,0,6.21c-3,5.29-5.76,10.69-8.7,16a2.78,2.78,0,0,0,0,3.1q5.07,9.18,10,18.46c.21.39-1.17,1.57-.92,1.8m-17.06-28.41c2.3-4.28,4.47-8.39,6.72-12.45a2.79,2.79,0,0,0,.06-3.13c-2.12-3.75-4.1-7.58-6.24-11.32a2.55,2.55,0,0,0-1.82-1.17q-6.37-.15-12.76,0a2.56,2.56,0,0,0-1.89,1.1q-3.36,5.88-6.47,11.92a2.59,2.59,0,0,0,0,2.06c2,4,4.14,7.89,6.36,11.74a2.73,2.73,0,0,0,2,1.19C1576.11,706.69,1580.77,706.64,1585.4,706.64Zm21.23-60.35c1.16-.2,2.69,0,3.26-.68,1.26-1.52,2.78-3.49,2.8-5.29s-1.4-3.91-2.72-5.29c-.78-.8-2.62-.52-4-.57-.83,0-2.07-.05-2.42.46-1.13,1.66-2.67,3.57-2.66,5.37s1.52,3.77,2.74,5.34C1604.16,646.28,1605.61,646.1,1606.63,646.29Z"/></g><g id="lock"><path class="cls-44" d="M1774.1,620.52l198.82,575.38c20.88-.44,41.13-56.45,41.13-78.09V498.48Z"/><circle class="cls-4" cx="1979.21" cy="555.05" r="215.25" transform="translate(187.22 1562.08) rotate(-45)"/><path class="cls-10" d="M2045.37,550.29H1932.53V492.08c0-32.09,25.31-58.2,56.42-58.2s56.42,26.11,56.42,58.2ZM1945,537.41h87.88V492.08c0-25-19.71-45.33-43.94-45.33S1945,467.09,1945,492.08Z"/><polygon class="cls-45" points="2032.89 503.21 2032.89 537.41 1945.01 537.41 1945.01 503.21 1932.53 503.21 1932.53 550.29 2045.37 550.29 2045.37 503.21 2032.89 503.21"/><rect class="cls-8" x="1915.43" y="521.12" width="147.03" height="128.77" rx="2"/><path class="cls-10" d="M2004.59,579.58a14,14,0,1,0-27.95,0,14.38,14.38,0,0,0,8.93,13.41l-6.73,22.45h23.55L1995.66,593A14.38,14.38,0,0,0,2004.59,579.58Z"/></g><g id="lady"><path class="cls-46" d="M2332.3,168.31c2,6.8,3.71,13.64,5.44,20.51,6.34,25.35,20,44.57,40.16,64.66,8.56,8.52,16.41,11.83,17.44,23.91,2.53,29.7-30.05,54.71-53,71.49s-17.64,17-16.53,39.81c1.07,22.22-14,31-41.28,32.64-73.52,4.48-82.48-97.33-79-140.58,3.83-47.1-24-94.16-25.66-141.42-1-28.64,9.58-57.9,44.18-65.71,47.28-10.66,78.3,24.32,94.93,58.84A225.64,225.64,0,0,1,2332.3,168.31Z"/><polygon class="cls-47" points="2230.18 1287.81 2217.07 1271.99 2240.75 1245.78 2260.75 1260.6 2230.18 1287.81"/><path class="cls-48" d="M2260.75,1260.6s-27,21.54-34.55,22.41-11.06,4.41-10.17,16.54-11,63.16-19.26,64-36.45,1-41.56,20.63,89.39,15.53,95.24-.59,46.55-94.25,41.73-100.54S2274.62,1262.61,2260.75,1260.6Z"/><path class="cls-49" d="M2087.32,649.94s-176.57,325.47-104.9,392.81c28.11,26.41,55.17,50.29,94.06,85.63,20.68,18.78,45.64,40.54,75.23,73.14l1.23,1.36c21.1,23.28,38.52,42.95,43.89,49,.19.2.36.39.5.57l.6.67,19.66,19.84,28.83-26.82s-32.68-47.85-51.12-84.61c-25.87-51.59-69.33-112.23-89.44-129.14-34.45-29-43.92-34.67-43.92-62.38,0-29.72,161.85-195.74,161.85-195.74s23.48-103.9-32.61-131.09C2136.53,616.72,2087.32,649.94,2087.32,649.94Z"/><path class="cls-50" d="M2222,1338.22s1.11-15-1.28-24.57,36.56-4.08,36.56-4.08,5,40,3.56,49.2S2222,1338.22,2222,1338.22Z"/><path class="cls-47" d="M2214.71,1313.7l52.52,10s3.78-70.91,3.1-125.24c-.73-58.39,2-104.31-14.81-150.79-15.77-43.47-12.18-60-13.56-89.71s13.47-182.52,13.47-182.52,17.94-68.43-23.59-116.7c-40.47-47-145.15-.2-145.15-.2s21.81,208.8,74.17,337.94c14.82,36.55,6.8,58.76,25.7,115.24C2186.56,1111.74,2215.27,1234.9,2214.71,1313.7Z"/><path class="cls-51" d="M2249.06,845.23l-150.09-97c-4.12-26.86-11.92-88.62-11.92-88.62s85.46,30.64,161.62,26c0,0,18.91,38,6.76,89.79C2252.64,805.1,2249.37,841.62,2249.06,845.23Z"/><path class="cls-52" d="M2169,245.74c2.75,4.9,4.76,11.19,6.22,17.87a161.59,161.59,0,0,1,2.88,19.06,237.74,237.74,0,0,1,1.06,24.28s70.06-16.14,58.56-33.42-4.73-69.69-4.73-69.69S2159.91,229.57,2169,245.74Z"/><path class="cls-53" d="M2129.57,102.94s-17.93,16.48-9.92,64c0,0-4,37.82-9.44,44.41s14.69,9,16.81,13.78,6.14,27,20.19,40.38,83.65-27,87-49.81S2285.85,95,2209.53,90.57,2129.57,102.94,2129.57,102.94Z"/><path class="cls-54" d="M2081.55,453.25c1.43,4.76-3.92,77.81-3.44,84.12,2.68,34.55-5.76,87-9.08,105.85-.79,4.45-1.23,6.72-1.23,6.72,75.65,39.15,180.87,35.73,180.87,35.73-.38-3-15.06-40.65-15.44-43.53-6.23-47-15.43-68.44-12.92-100.23h0c1.39-17.86,5.69-36.53,14.58-59.65,25.69-66.79,24.3-111.25,20.11-147.95s-14.58-57.61-14.58-57.61L2176.5,284c-13.57,15.9-25.64,24.37-64.2,60.59C2071.28,383.09,2064.11,394.79,2081.55,453.25Z"/><path class="cls-8" d="M2263.17,1348.37s-37-11.12-38.06-12.21-1.34-3.46-6.44-1.3-7.21,10.33-12.22,12.92-35.51,12-52.22,20.73c-6,3.15-31.6,13.46-35.28,22.07s-2.54,21.55,41.37,18.49,91.95,3.48,101.57-1.6S2265.69,1361.82,2263.17,1348.37Z"/><path class="cls-46" d="M2090.92,133.3c-.22-5.1,18.24-82.05,108.58-64.45s31.6,160.47,31.6,160.47-11.89-23.13-39.9-47.06C2150.64,147.59,2119.19,157.86,2090.92,133.3Z"/><path class="cls-52" d="M2195,163.73c5.43-10,24.08-4.67,21.95,10.58s-17.07,30.46-22,23.09S2187,178.44,2195,163.73Z"/><path class="cls-52" d="M2194.09,352.85s7.45,84.45-2.81,95.63c-39.2,42.72-195.41,74-195.41,74l-1.17,23.15s225.23-12.52,245.74-57.84c24.66-54.46,15.09-143.26,15.09-143.26Z"/><path class="cls-46" d="M2228.13,93.11s34.79-35.31,59.52,4.69-29.38,95.8-51.32,62.68S2228.13,93.11,2228.13,93.11Z"/><path class="cls-55" d="M2175.21,263.61a161.59,161.59,0,0,1,2.88,19.06c23.28-11.22,40.68-45.51,40.68-45.51-16.85,15.37-43.55,26.44-43.55,26.44Z"/><polygon class="cls-56" points="2240.41 276.7 2235.91 263.76 2174.52 276.7 2174.52 288.19 2240.41 276.7"/><path class="cls-52" d="M2194.19,354s-6.59-48.95,25.62-53.25,35.74,44,35.74,44Z"/><path class="cls-52" d="M1971.66,539.29c1.23-2.88,2.87-6,3.68-6.45,9.28-5.51,16.69-8.88,27.21-8.36,3.29.16,51-.76,51.14-2l-3,23.12c-18.14,5.67-44.19,16.78-63.29,15.48C1980,560.63,1966.44,551.42,1971.66,539.29Z"/></g></g></svg>