<svg id="Layer_1" data-name="Layer 1" xmlns="http://www.w3.org/2000/svg" viewBox="0 0 152.72 34.57"><defs><style>.cls-1{fill:#fcfcfc;}.cls-2{fill:#fff;}</style></defs><title>logo</title><path class="cls-1" d="M21,12.4a2,2,0,0,0-1.49-2.28H19a2.35,2.35,0,0,0-2,1.37,1.9,1.9,0,0,0-.15.46,1.85,1.85,0,0,0,0,.47,2,2,0,0,0,1.22,1.7,2.07,2.07,0,0,0,.49.12,1.51,1.51,0,0,0,.52,0A2.19,2.19,0,0,0,21,12.4Z" transform="translate(0)"/><path class="cls-1" d="M.39,22a16.94,16.94,0,0,0,.79,2.2h0c.1.07.19.1.24.08s.16-.22.08-.65A2.72,2.72,0,0,0,.5,22,.09.09,0,0,0,.39,22Z" transform="translate(0)"/><path class="cls-1" d="M5.61,30.49l-.14-.21a6.07,6.07,0,0,0-.82-.93h0l-.15-.13h0l-.19-.1L4.15,29,4,29H4c.23.27.48.52.73.77s.54.52.82.76Z" transform="translate(0)"/><path class="cls-1" d="M6.15,30.63H6.08A15.43,15.43,0,0,0,7.8,31.92a3.51,3.51,0,0,0-1.15-1.15C6.34,30.59,6.2,30.61,6.15,30.63Z" transform="translate(0)"/><path class="cls-1" d="M9.57,32.25a1,1,0,0,0-.61-.1.3.3,0,0,0-.2.33,16.22,16.22,0,0,0,2,1A2.83,2.83,0,0,0,9.57,32.25Z" transform="translate(0)"/><path class="cls-1" d="M12.75,33.5c-.49-.17-.9-.06-1,.26a18.22,18.22,0,0,0,2.06.51A2.2,2.2,0,0,0,12.75,33.5Z" transform="translate(0)"/><path class="cls-1" d="M15.26,34.49c.44,0,.88.07,1.31.08a1.81,1.81,0,0,0-.46-.17A1.38,1.38,0,0,0,15.26,34.49Z" transform="translate(0)"/><path class="cls-1" d="M1.25,24.76a17.62,17.62,0,0,0,1.22,2.16,2,2,0,0,0-.07-.35A4.13,4.13,0,0,0,1.25,24.76Z" transform="translate(0)"/><path class="cls-1" d="M4.55,28.7c.11,0,.14-.27.06-.58a3.5,3.5,0,0,0-1.33-1.87.76.76,0,0,0-.39-.13.61.61,0,0,0,0,.59,3.87,3.87,0,0,0,1.29,1.82A.58.58,0,0,0,4.55,28.7Z" transform="translate(0)"/><path class="cls-1" d="M5.46,27.6c-.29.08-.21.53-.17.66a3.46,3.46,0,0,0,1.46,1.86.74.74,0,0,0,.54.12c.18,0,.25-.3.19-.66A3,3,0,0,0,6,27.67.71.71,0,0,0,5.46,27.6Z" transform="translate(0)"/><path class="cls-1" d="M9.16,29.06A1,1,0,0,0,8.51,29c-.28.09-.4.36-.33.76a2.81,2.81,0,0,0,1.46,1.85,1.06,1.06,0,0,0,.63.08c.26-.08.39-.35.36-.75A2.49,2.49,0,0,0,9.16,29.06Z" transform="translate(0)"/><path class="cls-1" d="M12.75,30.12c-.86-.25-1.5.21-1.44,1A2.35,2.35,0,0,0,12.75,33a1,1,0,0,0,1.35-.43,1,1,0,0,0,.1-.57A2.15,2.15,0,0,0,12.75,30.12Z" transform="translate(0)"/><path class="cls-1" d="M16.41,31a1.3,1.3,0,0,0-1.61.88,1,1,0,0,0-.05.24,1.81,1.81,0,0,0,1.43,1.73,1.35,1.35,0,0,0,1.64-1l0-.14A1.7,1.7,0,0,0,16.41,31Z" transform="translate(0)"/><path class="cls-1" d="M4,25a2.66,2.66,0,0,0-1.26-1.84.59.59,0,0,0-.41-.06c-.22.07-.31.37-.23.78a3,3,0,0,0,1.21,1.81.68.68,0,0,0,.34.11h.09C4,25.68,4.07,25.38,4,25Z" transform="translate(0)"/><path class="cls-1" d="M5.58,24.33a.8.8,0,0,0-.55,0c-.29.09-.42.4-.35.83A2.78,2.78,0,0,0,6.06,27a.73.73,0,0,0,.56.08c.26-.08.4-.39.36-.84A2.44,2.44,0,0,0,5.58,24.33Z" transform="translate(0)"/><path class="cls-1" d="M10.59,27.45A2.39,2.39,0,0,0,9,25.34a1,1,0,0,0-1.32.51,1,1,0,0,0-.07.57A2.65,2.65,0,0,0,9.18,28.5,1,1,0,0,0,10.51,28,1,1,0,0,0,10.59,27.45Z" transform="translate(0)"/><path class="cls-1" d="M12.75,29.67a1.25,1.25,0,0,0,1.66-1.2,2.14,2.14,0,0,0-1.66-2.09,1.25,1.25,0,0,0-1.59.77,1.2,1.2,0,0,0-.07.46A2.33,2.33,0,0,0,12.75,29.67Z" transform="translate(0)"/><path class="cls-1" d="M14.92,28.6a2,2,0,0,0,1.53,2,1.57,1.57,0,0,0,1.85-1.23.36.36,0,0,0,0-.11,1.82,1.82,0,0,0-1.53-2A1.51,1.51,0,0,0,15,28.36,2,2,0,0,0,14.92,28.6Z" transform="translate(0)"/><path class="cls-1" d="M.24,19.22c-.17,0-.26.37-.24.78a1.93,1.93,0,0,0,.75,1.45.26.26,0,0,0,.21,0c.14,0,.29-.3.26-.78a1.84,1.84,0,0,0-.77-1.48A.26.26,0,0,0,.24,19.22Z" transform="translate(0)"/><path class="cls-1" d="M2.59,19.88a.75.75,0,0,0-.42,0c-.32.1-.5.46-.47.94a2.22,2.22,0,0,0,1.05,1.74.67.67,0,0,0,.31.07h.16c.31-.1.49-.47.47-1A2,2,0,0,0,2.59,19.88Z" transform="translate(0)"/><path class="cls-1" d="M5.6,23.76C6.34,24,7,23.54,7,22.64a2.12,2.12,0,0,0-1.42-2,1,1,0,0,0-1.28.6,1.06,1.06,0,0,0,0,.53A2.36,2.36,0,0,0,5.6,23.76Z" transform="translate(0)"/><path class="cls-1" d="M9,24.88a1.24,1.24,0,0,0,1.57-.76,1.35,1.35,0,0,0,.06-.49,2.12,2.12,0,0,0-1.55-2.11,1.26,1.26,0,0,0-1.57.85,1.18,1.18,0,0,0,0,.42A2.33,2.33,0,0,0,9,24.88Z" transform="translate(0)"/><path class="cls-1" d="M.51,18.6a.28.28,0,0,0,.18,0c.21-.06.44-.37.48-.91S.91,16.45.61,16.41a.33.33,0,0,0-.14,0c-.24.07-.43.45-.46.91S.18,18.48.51,18.6Z" transform="translate(0)"/><path class="cls-1" d="M2.82,16.67a1.21,1.21,0,0,0-.38,0,1.19,1.19,0,0,0-.69,1.11,1.53,1.53,0,0,0,.93,1.57h.44a1.18,1.18,0,0,0,.63-1.09A1.42,1.42,0,0,0,2.82,16.67Z" transform="translate(0)"/><path class="cls-1" d="M7.15,18.93A1.7,1.7,0,0,0,5.83,17a1.38,1.38,0,0,0-1.56,1.18s0,.09,0,.14a1.86,1.86,0,0,0,1.29,1.89,1.32,1.32,0,0,0,1.57-1A1.53,1.53,0,0,0,7.15,18.93Z" transform="translate(0)"/><path class="cls-1" d="M9.07,21.21a1.67,1.67,0,0,0,2-1.3,1.13,1.13,0,0,0,0-.25,2,2,0,0,0-1.63-2.23,1.73,1.73,0,0,0-2,1.43.59.59,0,0,0,0,.13A2.13,2.13,0,0,0,9.07,21.21Z" transform="translate(0)"/><path class="cls-1" d="M1.23,13.6H1.12a1.39,1.39,0,0,0-.73,1.05,1.25,1.25,0,0,0,.08.91.39.39,0,0,0,.23.15c.29,0,.76-.38.91-1.07a1.11,1.11,0,0,0-.13-.94A.26.26,0,0,0,1.23,13.6Z" transform="translate(0)"/><path class="cls-1" d="M4.09,13.77a.76.76,0,0,0-.61-.29,1,1,0,0,0-.3,0,1.67,1.67,0,0,0-1,1.2,1.3,1.3,0,0,0,.16,1,.89.89,0,0,0,.59.37h.4a1.6,1.6,0,0,0,1-1.21A1.29,1.29,0,0,0,4.09,13.77Z" transform="translate(0)"/><path class="cls-1" d="M4.75,14.9a1.42,1.42,0,0,0,1,1.73l.14,0a1.78,1.78,0,0,0,1.84-1.54,1.37,1.37,0,0,0-.92-1.71l-.28-.05A1.9,1.9,0,0,0,4.75,14.9Z" transform="translate(0)"/><path class="cls-1" d="M11.67,15.6a1.7,1.7,0,0,0-1.24-2l-.28,0a2.18,2.18,0,0,0-2.21,1.71,1.76,1.76,0,0,0,1.38,2.07l.12,0A2,2,0,0,0,11.67,15.6Z" transform="translate(0)"/><path class="cls-1" d="M2.47,11a.26.26,0,0,0-.25-.06h0a2,2,0,0,0-1,1.18.94.94,0,0,0,0,.77.24.24,0,0,0,.21.08,1.86,1.86,0,0,0,1.15-1.2A1.28,1.28,0,0,0,2.47,11Z" transform="translate(0)"/><path class="cls-1" d="M5.12,10.64a.58.58,0,0,0-.58-.19H4.33A2.32,2.32,0,0,0,3,11.76a1,1,0,0,0,0,.9.63.63,0,0,0,.55.26.87.87,0,0,0,.32-.06,2.09,2.09,0,0,0,1.27-1.31A1,1,0,0,0,5.12,10.64Z" transform="translate(0)"/><path class="cls-1" d="M5.66,11.6A1,1,0,0,0,6,13a1,1,0,0,0,.63.12,2.16,2.16,0,0,0,2-1.54c.26-.88-.2-1.54-1-1.48A2.39,2.39,0,0,0,5.66,11.6Z" transform="translate(0)"/><path class="cls-1" d="M12.56,11.64a1.44,1.44,0,0,0-.93-1.81,1.36,1.36,0,0,0-.53-.07,2.68,2.68,0,0,0-2.46,1.75,1.45,1.45,0,0,0,.94,1.82,1.41,1.41,0,0,0,.5.07A2.49,2.49,0,0,0,12.56,11.64Z" transform="translate(0)"/><path class="cls-1" d="M.75,11.29h0l-.07.06a1.59,1.59,0,0,0-.07.2c-.07.19-.13.39-.19.58s-.18.61-.26.92h0a3.13,3.13,0,0,0,.59-.93c.17-.44.16-.72.1-.78Z" transform="translate(0)"/><path class="cls-1" d="M1.87,9a1.55,1.55,0,0,0-.27.24c-.19.38-.38.78-.55,1.17l-.16.39a4.28,4.28,0,0,0,.91-1.2C2,9.23,2,9,2,9H2Z" transform="translate(0)"/><path class="cls-1" d="M3.57,8.35h0a2.9,2.9,0,0,0-1.3,1.29c-.19.38-.17.58-.13.63s.15,0,.19,0A2.69,2.69,0,0,0,3.71,9c.17-.33.19-.56.13-.63S3.62,8.33,3.57,8.35Z" transform="translate(0)"/><path class="cls-1" d="M6.48,7.7a.52.52,0,0,0-.56-.1h-.1A3.07,3.07,0,0,0,4.22,9a.78.78,0,0,0-.07.78.48.48,0,0,0,.39.16h.13A2.68,2.68,0,0,0,6.43,8.51C6.59,8.12,6.61,7.86,6.48,7.7Z" transform="translate(0)"/><path class="cls-1" d="M7.75,9.7a2.67,2.67,0,0,0,2-1.58c.31-.8-.08-1.33-.84-1.2a3,3,0,0,0-2,1.52C6.59,9.2,6.93,9.75,7.75,9.7Z" transform="translate(0)"/><path class="cls-1" d="M16.1,6.27A2.55,2.55,0,0,0,13.75,8a1.33,1.33,0,0,0,.78,1.7,1.63,1.63,0,0,0,.3.07,2.66,2.66,0,0,0-2.29,1.91,1.73,1.73,0,0,0,1,2.07,2.4,2.4,0,0,0-1.79,1.87A2.08,2.08,0,0,0,13,17.84a2.08,2.08,0,0,0-1.8,1.83,2.4,2.4,0,0,0,1.59,2.45A1.61,1.61,0,0,0,11,23.57a.49.49,0,0,0,0,.12,2.41,2.41,0,0,0,1.76,2.43,1.64,1.64,0,0,0,2-1.15,1.57,1.57,0,0,0,.05-.37,2.27,2.27,0,0,0-1.52-2.3,2,2,0,0,0,2.15-1.86,2.33,2.33,0,0,0-1.32-2.39A2.31,2.31,0,0,0,16,16.37v-.24a.89.89,0,0,0,0-.23,2,2,0,0,0-1.18-2,2.54,2.54,0,0,0,1.75-1.42,2,2,0,0,0,.15-.47,2,2,0,0,0,0-.49,1.75,1.75,0,0,0-1.43-1.7,2.33,2.33,0,0,0,2.05-1.7,1.36,1.36,0,0,0-.8-1.76A1.2,1.2,0,0,0,16.1,6.27Z" transform="translate(0)"/><path class="cls-1" d="M19.94,6.46a2.16,2.16,0,0,0-2.19,1.6,1.65,1.65,0,0,0,1.22,2H19l.28,0h.29a2,2,0,0,0,1.95-1.63,1.73,1.73,0,0,0-1.41-2Z" transform="translate(0)"/><path class="cls-1" d="M3,7C2.66,7.49,2.3,8,2,8.6A5.56,5.56,0,0,0,3.15,7.31c.23-.36.24-.51.23-.53h0l-.13.06Z" transform="translate(0)"/><path class="cls-1" d="M5.08,6A4.06,4.06,0,0,0,3.6,7.31c-.21.31-.22.47-.2.5h0a.49.49,0,0,0,.17,0h0a4,4,0,0,0,1.6-1.4c.21-.33.2-.47.19-.5A.67.67,0,0,0,5.08,6Z" transform="translate(0)"/><path class="cls-1" d="M8,5.05A.25.25,0,0,0,7.82,5a.66.66,0,0,0-.28,0A3.82,3.82,0,0,0,5.75,6.44c-.21.31-.22.51-.16.59a.27.27,0,0,0,.23.09h.24A3.45,3.45,0,0,0,7.89,5.65C8.08,5.32,8.08,5.12,8,5.05Z" transform="translate(0)"/><path class="cls-1" d="M10.41,4.12a3.58,3.58,0,0,0-2,1.48c-.38.65-.09,1.09.68,1a3.15,3.15,0,0,0,2-1.51C11.48,4.37,11.14,4,10.41,4.12Z" transform="translate(0)"/><path class="cls-1" d="M14.57,4.68c.29-.74-.14-1.23-.92-1.13a3,3,0,0,0-2,1.45c-.35.7,0,1.23.89,1.17A2.62,2.62,0,0,0,14.57,4.68Z" transform="translate(0)"/><path class="cls-1" d="M18.19,4.6a1,1,0,0,0-.59-1.28,1,1,0,0,0-.53,0,2.34,2.34,0,0,0-2,1.38c-.28.74.2,1.36,1.1,1.37A2.11,2.11,0,0,0,18.19,4.6Z" transform="translate(0)"/><path class="cls-1" d="M20,6.2a1.7,1.7,0,0,0,1.88-1.3,1.35,1.35,0,0,0-1.16-1.52h-.13a1.78,1.78,0,0,0-1.83,1.25,1.31,1.31,0,0,0,1,1.55A1.07,1.07,0,0,0,20,6.2Z" transform="translate(0)"/><path class="cls-1" d="M5,4.72A18.3,18.3,0,0,0,3.4,6.44,7,7,0,0,0,4.75,5.12,1,1,0,0,0,5,4.72Z" transform="translate(0)"/><path class="cls-1" d="M5.16,5.12a1.59,1.59,0,0,0-.22.35h.22A5.19,5.19,0,0,0,6.84,4.06,1.45,1.45,0,0,0,7,3.72l-.29.09A5.14,5.14,0,0,0,5.16,5.12Z" transform="translate(0)"/><path class="cls-1" d="M7.67,4.63V4.48A4.53,4.53,0,0,0,9.49,3.12c.18-.26.18-.38.16-.39s-.1,0-.34,0H9.22A4.7,4.7,0,0,0,7.43,4.12c-.2.27-.2.4-.19.41h.39v.14Z" transform="translate(0)"/><path class="cls-1" d="M12,1.91h-.08a3.88,3.88,0,0,0-1.77,1.27c-.17.24-.18.39-.14.45s.21.12.56,0a3.41,3.41,0,0,0,1.88-1.27c.14-.23.15-.37.1-.43S12.33,1.82,12,1.91Z" transform="translate(0)"/><path class="cls-1" d="M15,1.25l-.28.07a2.88,2.88,0,0,0-1.53,1.1c-.12.21-.15.38-.07.49a.8.8,0,0,0,.7.16A2,2,0,0,0,14.14,3a2.56,2.56,0,0,0,1.48-1.14.49.49,0,0,0,0-.47A.76.76,0,0,0,15,1.25Z" transform="translate(0)"/><path class="cls-1" d="M18,.9a1.86,1.86,0,0,0-.47.09,2,2,0,0,0-1.21.94.52.52,0,0,0,0,.54.88.88,0,0,0,.82.31,1.91,1.91,0,0,0,.53-.1,1.8,1.8,0,0,0,1.17-1,.59.59,0,0,0-.06-.56A.92.92,0,0,0,18,.9Z" transform="translate(0)"/><path class="cls-1" d="M20.67,2.86a2,2,0,0,0,.65-.07,1.18,1.18,0,0,0,.86-.85.76.76,0,0,0-.17-.6,1.2,1.2,0,0,0-.86-.41,1.79,1.79,0,0,0-.61.07,1.31,1.31,0,0,0-.89.79.68.68,0,0,0,.1.6A1.2,1.2,0,0,0,20.67,2.86Z" transform="translate(0)"/><path class="cls-1" d="M6.87,3.36A6.62,6.62,0,0,0,8.59,2.12,17.41,17.41,0,0,0,6.52,3.46h.15Z" transform="translate(0)"/><path class="cls-1" d="M9,2.35a1.18,1.18,0,0,0,.37-.09,5.46,5.46,0,0,0,1.8-1.2h0c-.51.19-1,.41-1.53.65a3.8,3.8,0,0,0-.48.42A1.12,1.12,0,0,0,9,2.35Z" transform="translate(0)"/><path class="cls-1" d="M11.59,1.4a1,1,0,0,0,.51,0A4,4,0,0,0,13.85.29a13.09,13.09,0,0,0-1.53.36,2.85,2.85,0,0,0-.57.47C11.59,1.3,11.58,1.38,11.59,1.4Z" transform="translate(0)"/><path class="cls-1" d="M14.43.62c.05.08.27.14.64.08A3.38,3.38,0,0,0,16.51,0a14.72,14.72,0,0,0-1.76.11,1,1,0,0,0-.21.21C14.43.47,14.4.57,14.43.62Z" transform="translate(0)"/><path class="cls-1" d="M17.39.12c.08.12.32.23.75.21A2.53,2.53,0,0,0,19,.12,14.89,14.89,0,0,0,17.36,0,.27.27,0,0,0,17.39.12Z" transform="translate(0)"/><path class="cls-1" d="M21.25.57a2,2,0,0,0,.49,0c-.46-.11-.92-.21-1.4-.28A1.47,1.47,0,0,0,21.25.57Z" transform="translate(0)"/><path class="cls-1" d="M20.35,31.37a1.7,1.7,0,0,0-1.88,1.3,1.35,1.35,0,0,0,1.16,1.52h.12A1.81,1.81,0,0,0,21.62,33a1.3,1.3,0,0,0-1-1.55A1.15,1.15,0,0,0,20.35,31.37Z" transform="translate(0)"/><path class="cls-1" d="M23.94,31.84A1.78,1.78,0,0,0,22.27,33a.94.94,0,0,0,0,.62,15.39,15.39,0,0,0,2.61-1.11A.88.88,0,0,0,23.94,31.84Z" transform="translate(0)"/><path class="cls-1" d="M24,7.05a1.72,1.72,0,0,0-2,1.4s0,.05,0,.07a2,2,0,0,0,1.69,2.19,1.67,1.67,0,0,0,2-1.24,2.34,2.34,0,0,0,0-.26A2.13,2.13,0,0,0,24,7.05Z" transform="translate(0)"/><path class="cls-1" d="M22.57,5A1.69,1.69,0,0,0,24,6.78a1.3,1.3,0,0,0,1.62-.87,1.37,1.37,0,0,0,.05-.28,1.82,1.82,0,0,0-1.43-1.74,1.36,1.36,0,0,0-1.65,1S22.58,5,22.57,5Z" transform="translate(0)"/><path class="cls-1" d="M23.75,1.42a.79.79,0,0,0-.59.66c-.08.55.46,1.15,1.19,1.3a1.38,1.38,0,0,0,.7,0h0a.74.74,0,0,0,.57-.71,1,1,0,0,0-.12-.45,16.64,16.64,0,0,0-1.64-.81Z" transform="translate(0)"/><path class="cls-1" d="M27.61,4.43a1,1,0,0,0,1.06-.12,17.61,17.61,0,0,0-2.45-1.84.76.76,0,0,0,0,.3A2,2,0,0,0,27.61,4.43Z" transform="translate(0)"/><path class="cls-1" d="M13.51,7.7c.17-.91-.4-1.42-1.28-1.32a2.6,2.6,0,0,0-2.09,1.74,1.11,1.11,0,0,0,.67,1.42,1.2,1.2,0,0,0,.65,0A2.54,2.54,0,0,0,13.51,7.7Z" transform="translate(0)"/><path class="cls-2" d="M39.57,20.67h7c-.33,3.16-3.61,4.58-6.74,4.58-4.79,0-7.78-2.44-7.78-6.36,0-4.51,2.7-7,7.59-7,4.63,0,6.32,2.52,6.83,3.6v.09l2-.95v-.09c-1.3-2.8-4.55-4.42-8.67-4.42-6.26,0-10,3.21-10,8.58s3.84,8.52,10,8.52c3.92,0,5.81-1.37,6.89-2.48V27h2.11v-8.2H39.57Z" transform="translate(0)"/><polygon class="cls-2" points="51.28 26.76 53.41 26.76 53.41 10.46 51.28 11.23 51.28 26.76"/><path class="cls-2" d="M62.65,14.63c-4.25,0-7.33,2.54-7.33,6,0,4,2.81,6.45,7.33,6.45S70,24.61,70,20.63C70,17.17,66.88,14.63,62.65,14.63Zm0,1.72c3.57,0,5.17,2.28,5.17,4.54,0,2.78-2,4.51-5.17,4.51s-5.2-1.77-5.2-4.51C57.45,17.77,60.14,16.35,62.65,16.35Z" transform="translate(0)"/><path class="cls-2" d="M79.59,14.63a8.57,8.57,0,0,0-5.5,1.86v-6L72,11.25V24.5c0,.23-.07,1.17-.12,1.73v.54h1.68L74,25a8.38,8.38,0,0,0,5.85,2.1c4.62,0,7-3.09,7-6.14C86.87,18.62,85.34,14.63,79.59,14.63Zm-5.5,4a7.36,7.36,0,0,1,5.38-2.23c2.55,0,5.27,1.23,5.27,4.67,0,2.88-2.68,4.38-5.32,4.38a8.27,8.27,0,0,1-5.33-2.4Z" transform="translate(0)"/><path class="cls-2" d="M101.35,24.88V18.47c0-3.46-4.34-3.84-6.2-3.84-4.31,0-5.72,1.61-6.47,2.47l-.12.13,1.63,1,.07-.07c.62-.67,1.78-1.9,5-1.9,1.9,0,3.93.54,3.93,2.07v.36l-1.44.18c-4.62.45-9.86,1-9.86,4.63,0,3.15,3.25,3.62,5.19,3.62a11.91,11.91,0,0,0,6.16-1.68,6.68,6.68,0,0,0,.24,1.26v.07h2.11v-.11A8.87,8.87,0,0,1,101.35,24.88Zm-2.13-4.51v3.32A14.52,14.52,0,0,1,93,25.47c-.72,0-3.07-.15-3.07-2C89.88,21.38,93.58,20.88,99.22,20.37Z" transform="translate(0)"/><polygon class="cls-2" points="104.39 11.23 104.39 26.76 106.52 26.76 106.52 10.46 104.39 11.23"/><path class="cls-2" d="M129,10.42h-8.73V26.81h8.06c3,0,10.13-.81,10.13-8.34C138.47,13.43,134.93,10.42,129,10.42Zm-.33,14.38h-6V12.43H129c2.62,0,7,.78,7,6C136,21.32,134.75,24.8,128.68,24.8Z" transform="translate(0)"/><path class="cls-2" d="M146.51,19.82c-2.22-.25-4.14-.46-4.14-1.68s1.24-1.79,3.49-1.79a6.24,6.24,0,0,1,5,2l.06.07,1.46-1.22-.06-.08c-.48-.63-1.95-2.54-6.46-2.54-2.73,0-5.65,1-5.65,3.62s3.2,3.06,6,3.38c2.26.26,4.39.49,4.39,1.89s-2.06,1.88-3.83,1.88a7,7,0,0,1-5.6-2.4l-.06-.08-1.59,1.35.07.07a8.88,8.88,0,0,0,7,2.78c3.9,0,6.13-1.36,6.13-3.73C152.75,20.51,149.45,20.12,146.51,19.82Z" transform="translate(0)"/><polygon class="cls-2" points="114.34 10.41 114.34 26.81 115.05 26.81 115.05 26.81 116.74 26.81 116.74 10.41 114.34 10.41"/></svg>